/* XPM */
static const char *const arrowdown_xpm[] = {
"12 12 2 1",
".	c #FFFFFF",
"+	c #000000",
"++++++++++++",
"++++++++++++",
".++++++++++.",
".++++++++++.",
"..++++++++..",
"..++++++++..",
"...++++++...",
"...++++++...",
"....++++....",
"....++++....",
".....++.....",
".....++....."};
