/* XPM */
static const char *const audiostereo_xpm[] = {
"27 18 2 1",
".	c #FFFFFF",
"+	c #000000",
"...........................",
"...........................",
"...........................",
"...........................",
".....++++.........++++.....",
"...++++++++.....++++++++...",
"...++++++++.....++++++++...",
"..++++++++++...++++++++++..",
"..++++++++++...++++++++++..",
"..++++++++++...++++++++++..",
"..++++++++++...++++++++++..",
"...++++++++.....++++++++...",
"...++++++++.....++++++++...",
".....++++.........++++.....",
"...........................",
"...........................",
"...........................",
"..........................."};
