/* XPM */
static const char *const ffwd2_xpm[] = {
"28 26 2 1",
".	c #FFFFFF",
"+	c #000000",
"............................",
"............................",
"..++......++................",
"..+++.....+++...............",
"..+++++...+++++.............",
"..++++++....++++............",
"..++++++++...+++++..........",
"..+++++++++....++++.........",
"..+++++++++++...+++++.......",
"..++++++++++++....++++......",
"..++++++++++++++...+++++....",
"..++++++++++++++.....++++...",
"..++++++++++++++...+++++....",
"..++++++++++++....++++......",
"..+++++++++++...+++++.......",
"..+++++++++....++++.........",
"..++++++++...+++++..........",
"..++++++....++++............",
"..+++++...+++++.............",
"..+++.....+++...............",
"..++......++................",
"............................",
"..++++++...++++++...........",
"..++++++...++++++...........",
"............................",
"............................"};
