/* XPM */
static const char *const pause_xpm[] = {
"28 26 2 1",
".	c #FFFFFF",
"+	c #000000",
"............................",
"............................",
"......+++++......+++++......",
"......+++++......+++++......",
"......+++++......+++++......",
"......+++++......+++++......",
"......+++++......+++++......",
"......+++++......+++++......",
"......+++++......+++++......",
"......+++++......+++++......",
"......+++++......+++++......",
"......+++++......+++++......",
"......+++++......+++++......",
"......+++++......+++++......",
"......+++++......+++++......",
"......+++++......+++++......",
"......+++++......+++++......",
"......+++++......+++++......",
"......+++++......+++++......",
"......+++++......+++++......",
"......+++++......+++++......",
"......+++++......+++++......",
"......+++++......+++++......",
"......+++++......+++++......",
"............................",
"............................"};
